<?xml version="1.0" standalone="no"?>
<!DOCTYPE svg PUBLIC "-//W3C//DTD SVG 20010904//EN"
 "http://www.w3.org/TR/2001/REC-SVG-20010904/DTD/svg10.dtd">
<svg version="1.0" xmlns="http://www.w3.org/2000/svg"
 width="375.000000pt" height="375.000000pt" viewBox="0 0 375.000000 375.000000"
 preserveAspectRatio="xMidYMid meet">
<metadata>
Created by potrace 1.14, written by Peter Selinger 2001-2017
</metadata>
<g transform="translate(0.000000,375.000000) scale(0.100000,-0.100000)"
fill="#000000" stroke="none">
<path d="M1727 3714 c-1 -1 -29 -5 -61 -8 -75 -8 -129 -17 -137 -22 -4 -2 -25
-6 -46 -9 -22 -3 -68 -14 -103 -25 -35 -11 -73 -22 -84 -24 -30 -6 -128 -46
-143 -58 -7 -6 -13 -7 -13 -4 0 4 -42 -14 -92 -40 -103 -53 -288 -172 -288
-185 0 -5 -3 -8 -7 -7 -8 3 -24 -10 -92 -69 -20 -18 -39 -33 -43 -33 -5 0 -8
-7 -8 -16 0 -8 -4 -12 -10 -9 -5 3 -10 -1 -10 -9 0 -9 -6 -16 -12 -17 -7 0
-39 -30 -70 -67 -31 -37 -67 -78 -79 -92 -66 -77 -241 -377 -254 -434 -1 -6
-6 -20 -10 -31 -38 -93 -66 -186 -81 -260 -2 -11 -8 -42 -14 -70 -88 -450 10
-941 264 -1330 250 -381 619 -648 1066 -769 52 -14 115 -28 139 -31 24 -3 47
-7 50 -10 12 -7 184 -18 276 -18 89 0 207 8 255 18 14 3 45 8 70 11 56 8 58 8
150 34 71 20 100 29 145 46 11 4 22 8 25 9 79 27 333 158 360 185 3 3 28 21
55 40 241 167 454 424 583 701 58 123 97 229 117 313 45 190 59 299 58 456 0
171 -12 264 -59 478 -22 101 -165 442 -186 442 -4 0 -7 3 -6 8 4 12 -103 172
-115 172 -6 0 -8 3 -4 6 3 4 1 12 -6 19 -7 7 -28 32 -47 55 -58 71 -177 190
-184 183 -3 -4 -6 -1 -6 5 0 9 -53 54 -165 139 -49 38 -184 117 -255 150 -85
39 -175 75 -199 80 -14 2 -29 7 -35 11 -6 3 -15 7 -21 9 -5 1 -35 9 -65 18
-30 8 -67 17 -82 20 -16 3 -40 7 -55 10 -16 3 -37 7 -48 9 -62 12 -166 20
-283 20 -73 1 -134 1 -135 0z"/>
</g>
</svg>
