<?xml version="1.0" standalone="no"?>
<!DOCTYPE svg PUBLIC "-//W3C//DTD SVG 20010904//EN"
 "http://www.w3.org/TR/2001/REC-SVG-20010904/DTD/svg10.dtd">
<svg version="1.0" xmlns="http://www.w3.org/2000/svg"
 width="512.000000pt" height="512.000000pt" viewBox="0 0 512.000000 512.000000"
 preserveAspectRatio="xMidYMid meet">

<g transform="translate(0.000000,512.000000) scale(0.100000,-0.100000)"
fill="#000000" stroke="none">
<path d="M2080 4764 c-19 -2 -78 -9 -130 -15 -470 -53 -958 -270 -1398 -622
-122 -97 -455 -419 -519 -502 l-31 -41 113 -96 113 -97 104 116 c270 302 600
559 928 722 767 381 1620 306 2352 -206 209 -146 416 -333 610 -550 l110 -123
394 0 394 0 0 150 0 150 -323 0 -324 0 -194 194 c-306 305 -549 485 -869 646
-268 135 -511 212 -805 256 -96 14 -452 27 -525 18z"/>
<path d="M2125 4014 c-307 -46 -562 -141 -805 -302 -319 -212 -657 -591 -816
-915 l-26 -53 35 -70 c145 -288 443 -625 742 -839 l80 -57 5 -682 5 -681 148
-3 147 -3 0 488 1 488 22 -39 c109 -190 210 -326 342 -458 299 -301 656 -480
1062 -533 159 -21 887 -21 985 0 253 53 460 231 548 472 42 117 50 207 50 591
l0 343 -352 -3 -353 -3 -75 -37 c-173 -85 -270 -240 -270 -432 1 -216 150
-403 360 -450 119 -27 110 -39 110 133 l0 149 -31 6 c-84 16 -139 86 -139 174
0 57 27 104 79 139 32 22 44 23 202 23 l169 0 0 -187 c0 -234 -9 -298 -54
-389 -57 -114 -160 -198 -285 -229 -55 -15 -119 -16 -489 -12 -386 4 -436 6
-520 25 -204 45 -383 121 -545 229 -117 77 -293 244 -377 355 -66 87 -175 266
-168 274 3 2 47 -3 99 -13 72 -14 147 -18 314 -18 247 0 353 16 555 82 436
143 862 484 1142 915 l63 97 518 0 517 1 0 150 0 150 -513 0 -513 0 -72 110
c-297 451 -706 786 -1138 929 -203 68 -291 82 -524 86 -113 2 -218 1 -235 -1z
m338 -719 c96 -25 176 -72 253 -149 221 -221 221 -561 0 -782 -114 -114 -235
-164 -398 -164 -247 0 -465 165 -534 405 -23 80 -23 222 0 300 54 185 209 340
392 390 67 18 217 18 287 0z"/>
</g>
</svg>
