<?xml version="1.0" standalone="no"?>
<!DOCTYPE svg PUBLIC "-//W3C//DTD SVG 20010904//EN"
 "http://www.w3.org/TR/2001/REC-SVG-20010904/DTD/svg10.dtd">
<svg version="1.0" xmlns="http://www.w3.org/2000/svg"
 width="512.000000pt" height="512.000000pt" viewBox="0 0 512.000000 512.000000"
 preserveAspectRatio="xMidYMid meet">

<g transform="translate(0.000000,512.000000) scale(0.100000,-0.100000)"
fill="#000000" stroke="none">
<path d="M406 5084 c-132 -32 -260 -131 -323 -250 -67 -126 -63 25 -63 -2274
0 -2299 -4 -2148 63 -2274 41 -78 125 -162 203 -203 126 -67 -25 -63 2274 -63
2299 0 2148 -4 2274 63 78 41 162 125 203 203 67 125 63 -9 63 2119 l0 1930
-383 382 -382 383 -128 0 -127 0 0 -667 c0 -653 0 -668 -21 -709 -23 -49 -86
-110 -135 -130 -28 -12 -245 -14 -1366 -14 -1324 0 -1332 0 -1374 21 -49 23
-110 86 -130 135 -12 27 -14 150 -14 699 l0 665 -287 -1 c-212 0 -303 -4 -347
-15z m2324 -2285 c310 -49 597 -264 740 -554 140 -285 140 -603 1 -890 -312
-639 -1157 -769 -1647 -252 -342 360 -373 909 -74 1306 153 202 393 350 634
390 73 12 270 13 346 0z"/>
<path d="M3121 5086 c-50 -28 -50 -30 -51 -498 l0 -438 29 -32 29 -33 175 -3
c140 -3 181 -1 211 12 67 28 67 31 64 517 l-3 431 -33 29 -32 29 -183 0 c-132
-1 -189 -4 -206 -14z"/>
</g>
</svg>
