<svg id="svg" xmlns="http://www.w3.org/2000/svg" xmlns:xlink="http://www.w3.org/1999/xlink" width="400" height="400" viewBox="0, 0, 400,400"><g id="svgg"><path id="path0" d="M209.613 1.528 C 203.241 5.413,202.786 9.479,206.979 25.060 C 212.071 43.981,213.061 45.423,221.303 45.931 C 227.559 46.316,230.867 44.318,233.170 38.762 L 234.736 34.982 231.382 21.983 C 227.471 6.831,226.330 4.162,222.736 1.768 C 219.290 -0.527,213.167 -0.639,209.613 1.528 M276.012 24.414 C 274.660 25.381,265.050 37.598,254.657 51.563 C 244.265 65.527,235.336 77.406,234.815 77.959 C 234.052 78.771,228.000 76.440,203.458 65.878 C 167.491 50.398,164.347 49.840,159.343 58.046 C 156.095 63.374,156.685 65.458,170.703 98.176 C 177.793 114.723,183.594 128.551,183.594 128.904 C 183.594 129.257,171.505 138.542,156.730 149.537 C 127.889 171.001,127.344 171.535,127.344 178.323 C 127.344 188.235,129.571 189.057,169.019 193.697 C 186.999 195.812,201.871 197.704,202.068 197.901 C 202.265 198.099,204.160 212.978,206.280 230.966 C 210.928 270.421,211.753 272.656,221.677 272.656 C 228.472 272.656,229.007 272.111,250.476 243.267 C 261.473 228.494,270.755 216.406,271.104 216.406 C 271.453 216.406,285.277 222.207,301.824 229.297 C 334.542 243.315,336.626 243.905,341.954 240.657 C 350.160 235.653,349.602 232.509,334.122 196.542 C 323.553 171.982,321.228 165.948,322.041 165.181 C 322.594 164.658,334.473 155.735,348.438 145.352 C 376.337 124.607,377.344 123.630,377.344 117.302 C 377.344 106.606,376.504 106.283,336.210 101.489 C 317.798 99.299,302.679 97.453,302.611 97.386 C 302.544 97.320,300.687 82.172,298.486 63.725 C 294.180 27.642,293.994 26.850,289.191 24.023 C 285.745 21.995,279.122 22.192,276.012 24.414 M346.484 37.423 C 342.794 39.136,325.477 56.457,324.263 59.648 C 320.169 70.416,330.637 80.263,340.966 75.362 C 345.395 73.260,362.190 55.567,363.300 51.833 C 366.398 41.412,356.382 32.828,346.484 37.423 M110.344 100.777 C 103.394 105.014,102.736 116.681,109.207 120.921 C 112.175 122.866,135.024 128.890,139.453 128.896 C 148.589 128.907,153.891 120.439,150.048 111.975 C 147.983 107.426,146.254 106.541,131.844 102.655 C 117.653 98.828,114.057 98.514,110.344 100.777 M360.368 167.159 C 351.406 171.228,351.709 185.400,360.834 188.973 C 367.387 191.538,387.255 196.228,390.009 195.858 C 400.484 194.453,403.938 179.664,395.138 173.898 C 393.187 172.619,367.820 165.618,365.234 165.644 C 364.375 165.652,362.185 166.334,360.368 167.159 M76.016 290.039 C 23.863 342.228,0.709 365.905,0.340 367.425 C -1.396 374.588,-0.300 376.646,11.562 388.509 L 22.556 399.502 27.168 399.836 C 34.041 400.333,30.684 403.413,111.020 322.902 L 185.712 248.047 183.899 233.296 C 182.903 225.183,181.956 218.415,181.796 218.255 C 181.366 217.824,157.090 214.864,153.901 214.853 C 151.304 214.844,147.228 218.779,76.016 290.039 M277.332 250.195 C 270.002 253.911,269.465 258.366,274.229 275.944 C 278.773 292.708,280.787 295.317,289.181 295.310 C 300.574 295.300,302.731 288.127,297.345 268.156 C 292.282 249.381,287.466 245.059,277.332 250.195 " stroke="none" fill="#000000" fill-rule="evenodd"></path></g></svg>