<?xml version="1.0" standalone="no"?>
<!DOCTYPE svg PUBLIC "-//W3C//DTD SVG 20010904//EN"
 "http://www.w3.org/TR/2001/REC-SVG-20010904/DTD/svg10.dtd">
<svg version="1.0" xmlns="http://www.w3.org/2000/svg"
 width="512.000000pt" height="512.000000pt" viewBox="0 0 512.000000 512.000000"
 preserveAspectRatio="xMidYMid meet">

<g transform="translate(0.000000,512.000000) scale(0.100000,-0.100000)"
fill="#000000" stroke="none">
<path d="M4185 5010 c-407 -59 -753 -113 -768 -121 -18 -8 -373 -427 -906
-1069 -482 -580 -883 -1063 -890 -1073 -13 -17 4 -37 212 -245 l227 -227 702
702 c484 483 712 704 731 709 123 30 223 -70 193 -193 -5 -19 -226 -247 -709
-731 l-702 -702 227 -227 c208 -208 228 -225 245 -212 10 7 494 409 1075 892
958 795 1058 881 1072 920 22 59 229 1523 221 1564 -12 67 -86 124 -157 122
-18 -1 -366 -49 -773 -109z"/>
<path d="M1114 2496 c-125 -29 -246 -116 -259 -188 -18 -94 -51 -56 673 -780
724 -724 686 -691 780 -673 47 9 114 78 153 158 58 123 59 260 3 389 -25 58
-66 102 -493 531 -256 257 -486 481 -510 497 -99 66 -233 91 -347 66z"/>
<path d="M892 1317 l-212 -212 213 -213 212 -212 213 213 212 212 -213 213
-212 212 -213 -213z"/>
<path d="M150 938 c-70 -36 -120 -95 -140 -166 -13 -48 -13 -333 0 -403 34
-180 179 -325 359 -359 70 -13 355 -13 403 0 71 20 130 70 166 140 31 59 33
71 30 135 -2 40 -12 87 -23 110 -25 54 -496 525 -550 550 -23 11 -70 21 -110
23 -64 3 -76 1 -135 -30z"/>
</g>
</svg>
